<svg version="1.1" id="Layer_1" xmlns="http://www.w3.org/2000/svg" xmlns:xlink="http://www.w3.org/1999/xlink" x="0px" y="0px"
	 width="100%" viewBox="0 0 1024 1024" enable-background="new 0 0 1024 1024" xml:space="preserve">
<path fill="#000000" opacity="1.000000" stroke="none" 
	d="
M646.004700,525.998535 
	C658.919373,514.166382 671.444763,502.430481 684.251038,491.009521 
	C694.759338,481.637909 709.579712,483.462189 716.254272,494.588257 
	C721.539001,503.397522 719.985107,513.781067 711.788330,521.353210 
	C698.448975,533.676025 684.908813,545.781677 671.449707,557.974792 
	C651.450623,576.092834 631.480286,594.242798 611.439270,612.314331 
	C585.457092,635.743042 559.747375,659.489258 533.297424,682.378967 
	C512.396729,700.466553 481.361877,700.723145 460.083923,683.008362 
	C435.120300,662.224976 410.927429,640.515137 386.422943,619.181091 
	C346.586548,584.498718 306.768066,549.795776 266.943237,515.100098 
	C258.149658,507.439178 249.058228,500.089996 240.627914,492.047974 
	C216.758972,469.278442 216.894943,433.665588 240.531464,410.633209 
	C274.783813,377.256317 308.960449,343.801788 343.189453,310.400909 
	C350.344269,303.419189 357.543945,296.482208 364.798767,289.604614 
	C373.554443,281.304169 386.975555,281.535187 394.858521,290.029236 
	C402.737427,298.518890 401.508240,309.881470 392.317596,318.833069 
	C364.980499,345.459045 337.827332,372.273773 310.565674,398.977386 
	C298.903107,410.401184 287.059784,421.641479 275.462158,433.130280 
	C262.897003,445.577576 263.655701,458.256470 277.065369,469.896759 
	C321.857819,508.779053 366.587158,547.734192 411.300720,586.707275 
	C433.281189,605.865784 455.157990,625.143127 477.118103,644.325073 
	C482.071014,648.651367 487.467804,652.119934 494.313049,652.734070 
	C502.562775,653.474304 509.356415,650.285034 515.225281,644.965027 
	C548.678223,614.640503 582.063477,584.241272 615.462952,553.857788 
	C625.568665,544.664673 635.646362,535.440735 646.004700,525.998535 
z"/>
<path fill="#000000" opacity="1.000000" stroke="none" 
	d="
M740.713501,345.284393 
	C744.199158,348.657745 747.284058,351.959991 750.713501,354.854004 
	C753.788269,357.448792 753.584900,359.319977 750.785095,362.079803 
	C735.838196,376.813171 721.007629,391.665710 706.223450,406.562988 
	C673.019531,440.020966 639.860596,473.523682 606.709412,507.034058 
	C604.915771,508.847137 602.911316,510.181854 600.585571,511.218872 
	C570.024963,524.845398 539.478088,538.502930 508.952759,552.208252 
	C505.546051,553.737793 502.198792,555.231140 498.428589,553.808838 
	C494.188507,552.209351 492.139099,547.668335 493.462555,542.693848 
	C501.540802,512.330383 510.152283,482.096649 517.529236,451.564331 
	C520.678589,438.529388 527.015625,428.621246 536.440247,419.287323 
	C577.622620,378.501312 618.239258,337.143951 659.043945,295.976929 
	C662.912354,292.074219 666.798340,288.173309 670.420105,284.046875 
	C673.094482,280.999847 675.019470,281.406555 677.754883,284.102631 
	C692.937500,299.066833 708.272888,313.876068 723.567322,328.726685 
	C729.183105,334.179474 734.830017,339.600250 740.713501,345.284393 
M542.949524,490.426270 
	C533.110413,501.949860 523.232727,513.440979 513.478699,525.036194 
	C512.191284,526.566650 510.219208,528.629333 512.518188,530.703308 
	C514.750427,532.717102 516.162354,530.313049 517.457214,529.031189 
	C533.083862,513.561951 548.700928,498.082184 564.199158,482.484711 
	C567.279175,479.385040 570.335388,477.539642 575.022278,477.524353 
	C585.041321,477.491638 593.119385,467.793365 591.237122,458.844574 
	C589.169556,449.014435 580.746704,442.885773 572.059082,444.890228 
	C561.660339,447.289490 556.318542,455.998901 559.132629,466.402008 
	C559.922913,469.323486 559.434265,471.372742 557.415710,473.600403 
	C552.609375,478.904633 548.055481,484.437561 542.949524,490.426270 
z"/>
<path fill="#000000" opacity="1.000000" stroke="none" 
	d="
M578.034973,283.960449 
	C581.292053,287.095947 584.338867,289.936737 587.300659,292.863739 
	C593.684875,299.173065 595.392639,308.149292 591.838928,316.373291 
	C588.417480,324.291077 580.801758,328.822083 571.746582,328.341980 
	C566.187073,328.047180 562.132812,324.856384 558.390137,321.231842 
	C546.900696,310.105011 535.484375,298.902740 524.037476,287.731964 
	C522.845154,286.568390 521.670654,285.383789 520.433228,284.269653 
	C513.392700,277.930847 506.949799,278.582367 501.644836,286.531830 
	C496.653290,294.011688 492.053223,301.751984 487.240204,309.351929 
	C458.096161,355.371124 428.926025,401.373810 399.802185,447.405792 
	C394.582306,455.656067 395.218597,458.685333 402.498566,465.431641 
	C421.070740,482.642426 439.551636,499.951660 458.076569,517.213440 
	C462.645569,521.470825 465.481384,526.337708 465.429291,532.937439 
	C465.357422,542.051941 460.858826,548.220764 453.151276,551.920898 
	C445.702362,555.496887 438.419830,554.109741 432.337250,548.454407 
	C412.815704,530.304138 393.398621,512.041504 373.931732,493.832428 
	C369.186584,489.393890 364.297485,485.103821 359.661560,480.554932 
	C348.533508,469.635712 346.786041,457.393921 354.926086,443.948822 
	C363.897369,429.130615 373.288635,414.565430 382.570648,399.936737 
	C410.594940,355.769653 438.654938,311.625183 466.701080,267.471985 
	C470.808594,261.005432 475.063385,254.627106 478.996857,248.056396 
	C491.263367,227.565781 519.620728,226.858032 534.361816,241.605591 
	C548.612671,255.862579 563.294006,269.689178 578.034973,283.960449 
z"/>
<path fill="#000000" opacity="1.000000" stroke="none" 
	d="
M774.281311,231.717133 
	C785.666077,242.965652 796.875061,253.890518 807.892334,265.005310 
	C819.116455,276.328735 819.639404,291.984222 808.724792,303.509277 
	C796.478149,316.441040 783.665527,328.835449 771.197449,341.559967 
	C768.903931,343.900604 767.480896,343.211334 765.471680,341.232086 
	C745.901917,321.955017 726.271057,302.739899 706.620300,283.545349 
	C701.500793,278.544678 696.291321,273.633911 691.043091,268.768341 
	C688.619202,266.521240 688.339050,264.715759 690.895020,262.165283 
	C702.914795,250.171326 714.664856,237.906433 726.718811,225.947510 
	C739.360107,213.405853 754.270935,213.241608 767.566528,225.221863 
	C769.790894,227.226166 771.873352,229.387863 774.281311,231.717133 
z"/>
<path fill="#000000" opacity="1.000000" stroke="none" 
	d="
M502.309601,824.879639 
	C501.794952,828.021484 503.817261,831.653687 499.385498,832.800293 
	C492.975952,834.458618 487.725677,832.917419 485.229370,828.589966 
	C472.242615,836.128601 459.951935,835.348938 451.656525,826.460022 
	C442.308563,816.443237 441.214386,798.829590 449.240265,787.563110 
	C457.617401,775.803467 468.757080,773.615601 485.235809,780.743652 
	C486.111145,774.563904 485.712402,768.462280 485.562256,762.415955 
	C485.458282,758.228943 486.528900,756.557861 491.082275,756.490601 
	C502.374939,756.323853 502.357910,756.085754 502.344635,767.466797 
	C502.322540,786.443054 502.319702,805.419373 502.309601,824.879639 
M462.648560,812.589294 
	C466.547638,818.426514 470.955139,820.268982 476.994232,818.586365 
	C482.114044,817.159729 485.641785,811.850586 485.708496,805.471191 
	C485.781219,798.515625 482.722748,793.690552 477.086639,791.868896 
	C471.433228,790.041626 465.441986,792.525574 462.829254,797.904785 
	C460.618286,802.456848 460.349304,807.136902 462.648560,812.589294 
z"/>
<path fill="#000000" opacity="1.000000" stroke="none" 
	d="
M363.034821,761.784912 
	C368.775574,765.221191 373.020325,769.500000 375.454926,775.462036 
	C376.800690,778.757507 376.523773,780.929993 372.407288,781.427246 
	C370.437866,781.665039 368.483978,782.189941 366.579041,782.769043 
	C362.875824,783.894775 360.376923,783.321899 357.810760,779.739868 
	C351.186798,770.493652 336.361237,770.554321 328.443115,779.453857 
	C317.372162,791.896790 322.002625,815.131714 340.199921,818.144287 
	C348.316132,819.487976 354.570282,816.295166 359.120361,809.828186 
	C360.852936,807.365662 362.356659,806.466187 365.242279,807.539551 
	C367.238617,808.282043 369.451141,808.449585 371.571289,808.851624 
	C376.583374,809.801819 377.220276,811.033630 375.019440,815.564148 
	C368.657959,828.659668 353.646027,836.207825 338.265808,834.044067 
	C322.193665,831.782959 309.410736,820.977844 305.988831,806.761108 
	C301.607025,788.556519 307.095581,772.274719 321.830872,762.950073 
	C334.931519,754.659912 348.835571,754.619263 363.034821,761.784912 
z"/>
<path fill="#000000" opacity="1.000000" stroke="none" 
	d="
M717.386841,833.138062 
	C706.486572,835.068909 699.181702,831.034302 694.056152,821.781860 
	C691.846191,817.792419 688.386658,814.495178 685.630066,811.052429 
	C683.342957,811.600769 683.421448,813.061462 683.384338,814.346558 
	C683.307556,817.008118 683.335144,819.672852 683.334351,822.336304 
	C683.330994,833.462402 680.988098,835.291077 669.833008,833.240295 
	C666.516663,832.630554 666.693970,830.335510 666.690674,827.988220 
	C666.670959,814.004761 666.666992,800.021301 666.660889,786.037842 
	C666.657349,777.880798 666.791870,769.720703 666.599304,761.568176 
	C666.513184,757.921631 667.769470,756.541931 671.469666,756.581421 
	C685.536499,756.731689 683.124939,755.394226 683.310303,768.106079 
	C683.445129,777.350220 683.336609,786.597961 683.336609,795.844055 
	C683.777588,796.028320 684.218567,796.212646 684.659485,796.396912 
	C688.507812,792.175598 692.701477,788.212708 696.107666,783.660583 
	C699.541565,779.071350 703.505554,776.765747 709.242737,777.602722 
	C712.795654,778.121155 716.482361,776.407959 720.073364,778.025696 
	C720.413757,780.759094 718.304565,781.966980 716.943848,783.452271 
	C711.997375,788.851562 706.960510,794.170959 701.852295,799.417847 
	C699.863953,801.460144 699.792419,802.923096 701.708069,805.287598 
	C707.886658,812.914185 713.722168,820.818298 719.710999,828.599243 
	C721.765686,831.268738 722.094299,833.145508 717.386841,833.138062 
z"/>
<path fill="#000000" opacity="1.000000" stroke="none" 
	d="
M534.658752,833.782227 
	C518.641357,830.517883 509.567627,819.866943 509.730438,804.914062 
	C509.890808,790.186340 519.722351,778.873657 534.650452,776.239685 
	C551.070129,773.342529 566.828552,787.253662 566.232483,804.016235 
	C566.104675,807.608765 564.867798,809.606689 560.961670,809.610229 
	C551.645691,809.618591 542.329468,809.764893 533.014099,809.903015 
	C531.225037,809.929565 529.357971,809.451477 527.666504,810.445984 
	C528.467590,818.014526 537.546509,822.234131 545.872131,818.877625 
	C547.240112,818.326050 548.755615,817.665833 549.689575,816.604187 
	C552.171997,813.782654 554.621216,814.186279 557.655151,815.671509 
	C565.131226,819.331299 565.483826,820.758789 559.487061,826.500244 
	C552.622925,833.072083 544.340576,835.134705 534.658752,833.782227 
M547.844116,798.360107 
	C548.191223,798.069702 548.869385,797.733521 548.836487,797.495667 
	C548.217224,793.018005 543.839600,790.114136 537.963562,790.208191 
	C531.858948,790.305969 528.619873,792.814087 527.945129,798.397217 
	C534.397644,798.397217 540.806091,798.397217 547.844116,798.360107 
z"/>
<path fill="#000000" opacity="1.000000" stroke="none" 
	d="
M437.002747,793.360962 
	C441.494415,805.217712 439.708405,815.877930 431.573029,824.873962 
	C423.479767,833.823364 412.985657,835.918335 401.412109,833.032898 
	C388.441345,829.799194 380.452026,818.758972 380.670349,804.368164 
	C380.872040,791.074280 390.457153,779.653381 403.849060,776.750183 
	C417.729462,773.741150 430.256805,779.911926 437.002747,793.360962 
M405.971863,818.623047 
	C414.292145,820.972412 421.118591,816.203796 422.526337,807.058899 
	C423.575684,800.242249 419.067993,792.887878 412.988190,791.497192 
	C405.950806,789.887512 399.922241,793.913757 397.876709,801.589478 
	C396.117065,808.192444 398.821869,814.314575 405.971863,818.623047 
z"/>
<path fill="#000000" opacity="1.000000" stroke="none" 
	d="
M619.003967,780.320312 
	C619.931458,782.652710 620.861938,781.226624 621.729614,780.659180 
	C638.209351,769.878418 655.937500,778.563110 657.081848,798.305969 
	C657.659241,808.267029 657.142456,818.289551 657.197571,828.283875 
	C657.215881,831.607422 655.823059,832.959595 652.418152,833.131287 
	C639.855530,833.764709 639.887573,833.857971 639.884766,821.562561 
	C639.883179,814.733765 639.915771,807.899780 639.665527,801.077881 
	C639.464050,795.586426 636.744019,792.546753 631.804871,791.601562 
	C627.420166,790.762390 622.971130,793.218689 620.872864,797.722839 
	C619.732422,800.170776 619.302185,802.764099 619.325256,805.486267 
	C619.390137,813.148621 619.242065,820.813721 619.386047,828.473877 
	C619.450867,831.921692 618.087646,833.196228 614.677429,833.192078 
	C600.864319,833.175415 602.736023,834.592957 602.668884,821.855774 
	C602.603943,809.528809 602.649597,797.201294 602.659119,784.874023 
	C602.664612,777.716248 602.675659,777.721313 609.669067,777.651001 
	C611.501099,777.632629 613.336548,777.630981 615.163513,777.514221 
	C617.106873,777.390015 618.361633,778.153870 619.003967,780.320312 
z"/>
<path fill="#000000" opacity="1.000000" stroke="none" 
	d="
M591.944580,771.033325 
	C591.750000,790.315247 591.471680,809.104492 591.438293,827.894226 
	C591.431458,831.769653 590.159241,833.186462 586.265198,833.172302 
	C572.731445,833.123047 574.754517,834.335388 574.694702,821.938354 
	C574.601562,802.644348 574.771240,783.348511 574.575073,764.055969 
	C574.528503,759.478333 575.656799,757.343018 580.670227,757.615540 
	C591.608276,758.210083 592.057617,754.699646 591.944580,771.033325 
z"/>
<path fill="#000000" opacity="1.000000" stroke="none" 
	d="
M968.804077,973.121216 
	C976.271729,973.875183 982.981262,971.517944 989.839294,970.576660 
	C993.479065,970.077087 996.583862,967.666016 1000.673462,967.750244 
	C1007.769287,967.896362 1012.222473,974.380859 1008.626160,980.695007 
	C1007.008545,983.535278 1006.839905,985.298645 1008.707214,988.213318 
	C1012.027039,993.395386 1009.659058,999.219238 1008.684998,1004.615662 
	C1008.275513,1006.884277 1005.076477,1007.758850 1002.777039,1006.347900 
	C999.839233,1004.545349 997.289124,1005.292358 994.278809,1006.080811 
	C989.335938,1007.375488 984.156006,1006.661804 979.119202,1006.822876 
	C971.512085,1007.066162 963.965332,1004.592773 956.370483,1006.603333 
	C952.595825,1007.602478 949.059631,1007.422363 947.480408,1001.853699 
	C955.456665,1005.938171 963.282837,1004.309814 971.047485,1003.799927 
	C972.548767,1003.701416 974.323486,1003.663513 974.409241,1001.651794 
	C974.493958,999.666687 972.782227,999.495239 971.273499,999.190857 
	C969.758118,998.885071 967.896667,999.699158 966.559998,997.614441 
	C968.821899,996.190063 971.300903,996.358765 973.640808,996.431641 
	C975.959229,996.503906 977.205444,995.397339 977.468811,993.391907 
	C978.002380,989.328735 978.261169,985.229492 978.609497,981.405273 
	C976.866699,979.999817 975.864380,981.938416 974.570190,981.629700 
	C974.429626,981.326660 974.133118,980.993835 974.205994,980.799866 
	C975.877197,976.354065 972.936279,976.286438 969.869812,975.976013 
	C966.561035,975.641052 966.576782,975.485291 968.804077,973.121216 
M998.431458,996.563416 
	C1000.809875,998.903870 1002.257996,1002.346008 1007.038086,1004.217896 
	C1005.013672,999.183044 1004.885315,995.408020 1007.357727,991.530518 
	C999.505493,990.255493 1002.822205,984.178284 1000.898621,980.714478 
	C1002.930420,978.788391 1006.165649,980.849304 1006.478516,978.022095 
	C1006.768860,975.397949 1006.576843,972.432495 1003.838257,970.915039 
	C1001.444031,971.559265 1003.472961,974.469055 1001.345337,974.876831 
	C998.374634,974.913940 999.463806,970.412964 996.012146,970.710693 
	C995.344604,975.537292 991.701538,975.577454 987.921143,975.197449 
	C983.858765,974.789062 982.189453,976.413452 982.322937,980.595398 
	C982.519592,986.755005 982.111206,992.914001 981.317993,999.043579 
	C981.129456,1000.500732 980.327576,1002.413635 982.560852,1003.170898 
	C983.893311,1002.824097 984.132629,1001.733398 984.245972,1000.806824 
	C984.589050,998.002136 984.680176,995.166565 985.026489,992.362305 
	C985.279419,990.314209 986.433044,988.997375 988.674744,989.035278 
	C991.221863,989.078308 991.665588,990.819458 991.486145,992.819031 
	C991.284302,995.070007 992.260437,997.530518 990.370850,999.514648 
	C989.386047,1000.548645 988.718384,1001.731689 989.845581,1003.029297 
	C990.567322,1003.860229 991.645691,1003.817932 992.642883,1003.575317 
	C994.253357,1003.183411 994.590759,1001.896423 994.604370,1000.492493 
	C994.634949,997.327454 994.699219,994.158813 994.588013,990.997375 
	C994.481934,987.980347 993.979736,985.269531 989.793274,985.745667 
	C988.308228,985.914551 986.790710,985.271179 986.141724,983.647339 
	C985.685669,982.505981 985.750122,981.345337 986.566040,980.348694 
	C988.182068,978.374695 995.928711,978.318298 996.622498,980.628235 
	C998.092896,985.523499 1001.476135,990.348572 998.431458,996.563416 
z"/>
</svg>