<svg version="1.1" id="Layer_1" xmlns="http://www.w3.org/2000/svg" xmlns:xlink="http://www.w3.org/1999/xlink" x="0px" y="0px"
	 width="100%" viewBox="0 0 1024 1024" enable-background="new 0 0 1024 1024" xml:space="preserve">
<path fill="#000000" opacity="1.000000" stroke="none" 
	d="
M629.045776,529.082397 
	C627.055054,529.066467 625.555542,529.032227 624.056274,529.041443 
	C617.902222,529.079346 617.078552,530.637695 620.292480,536.136719 
	C626.769836,547.219910 642.665222,550.423401 653.482788,541.858582 
	C658.549683,537.846863 661.878601,538.941101 665.226379,542.713501 
	C669.140137,547.123535 673.054871,547.114929 678.032532,544.775269 
	C685.590271,541.222961 692.989746,537.520569 699.672546,532.427673 
	C703.135010,529.789001 704.772827,526.792114 704.733887,522.292053 
	C704.549500,500.967957 704.780457,479.640015 704.555908,458.316681 
	C704.504883,453.470245 705.613342,451.494476 710.894287,451.622284 
	C722.003906,451.891113 720.196350,451.641418 720.248352,461.174255 
	C720.335632,477.168030 720.250061,493.162689 720.269531,509.156952 
	C720.274231,513.005005 720.105896,516.803711 718.861572,520.503784 
	C718.502808,521.570435 718.187256,522.874695 718.469788,523.899780 
	C721.590637,535.223694 719.544250,546.781189 720.158691,558.211609 
	C720.325378,561.314453 719.023926,562.667725 715.862915,562.950623 
	C705.000305,563.922546 704.717468,563.682617 704.621765,552.829468 
	C704.578369,547.913147 705.133911,542.950745 704.069153,537.462463 
	C698.933838,540.343506 694.166504,542.933899 689.485046,545.671204 
	C685.721497,547.871765 681.762451,549.577515 677.618286,550.875549 
	C672.073364,552.612488 666.903137,554.926819 661.825439,557.946350 
	C639.368164,571.300659 611.974060,564.066101 601.385864,542.039795 
	C590.492859,519.379456 600.597900,485.795074 633.442383,481.977509 
	C653.368652,479.661469 671.898254,493.943268 674.320496,513.839233 
	C674.701721,516.970764 674.924622,520.127197 675.082092,523.279114 
	C675.291748,527.475220 673.304626,529.120789 669.021973,529.069214 
	C655.862305,528.910583 642.698975,529.056580 629.045776,529.082397 
M619.483337,510.826721 
	C618.664001,512.933594 618.219238,514.800049 621.551147,514.788513 
	C631.190674,514.755249 640.830383,514.751160 650.469971,514.757019 
	C653.557678,514.758911 654.183899,513.107971 653.361755,510.515045 
	C652.093140,506.513489 649.557373,503.562744 645.813904,501.657684 
	C635.523315,496.420624 625.127502,499.826599 619.483337,510.826721 
z"/>
<path fill="#000000" opacity="1.000000" stroke="none" 
	d="
M511.723938,542.061035 
	C504.236969,523.473022 507.893555,503.873199 520.964233,491.398285 
	C532.719604,480.178711 549.742432,478.939056 563.100342,488.320435 
	C564.011658,488.960449 564.738037,490.057739 566.441406,489.591187 
	C567.525879,484.820953 566.784363,479.851624 566.929932,474.940979 
	C567.107544,468.948486 567.302673,462.936890 567.015869,456.956329 
	C566.781433,452.068726 568.699646,450.326050 573.436096,450.763489 
	C576.406555,451.037811 579.447571,450.977020 582.420776,450.690674 
	C586.834534,450.265594 588.208313,452.083893 588.181091,456.411346 
	C588.015625,482.728943 588.059937,509.047943 588.044373,535.366455 
	C588.040039,542.695435 587.986328,550.026001 588.120789,557.352783 
	C588.185547,560.879944 586.969910,562.696228 583.199707,562.422302 
	C581.385193,562.290466 579.537842,562.476257 577.714172,562.625366 
	C568.987366,563.339172 568.742371,563.166809 567.235168,554.047485 
	C557.418457,563.433411 546.208374,566.814453 533.391602,562.601990 
	C523.153809,559.237122 516.034119,552.354675 511.723938,542.061035 
M547.656921,545.665955 
	C561.451782,545.254761 570.196045,532.646667 567.192627,517.498108 
	C565.013550,506.507599 555.624207,499.109802 546.031189,500.825134 
	C536.144043,502.593079 529.440796,511.144012 529.334656,522.123901 
	C529.204346,535.603882 534.971558,543.352844 547.656921,545.665955 
z"/>
<path fill="#000000" opacity="1.000000" stroke="none" 
	d="
M342.532806,555.552734 
	C322.187653,541.576477 313.663269,518.320129 319.737823,493.953278 
	C325.297821,471.650482 344.861053,455.226074 368.768951,452.520233 
	C385.465637,450.630524 400.005524,455.260620 412.550385,466.321869 
	C418.475800,471.546478 418.390991,472.429047 412.325714,477.060120 
	C409.549438,479.179901 406.825989,481.387634 404.243835,483.737091 
	C402.114105,485.674835 400.646179,485.759338 398.445587,483.526306 
	C386.783020,471.691742 372.326172,469.400665 358.489716,476.921631 
	C344.638519,484.450562 337.884949,499.320343 340.775757,514.885010 
	C342.734222,525.429871 347.432434,534.006592 356.709229,539.664734 
	C369.679779,547.575745 386.343597,545.241028 397.489227,534.099304 
	C402.663666,528.926697 402.667542,528.921753 408.310303,533.342224 
	C411.557007,535.885681 414.788727,538.448181 417.967163,540.954773 
	C404.353668,565.343140 367.403809,571.750488 342.532806,555.552734 
z"/>
<path fill="#000000" opacity="1.000000" stroke="none" 
	d="
M824.623413,527.909790 
	C824.359009,503.610657 825.226685,479.791901 824.186768,455.986908 
	C824.034851,452.509491 825.056213,450.593140 828.934448,450.833710 
	C832.253418,451.039581 835.617920,451.148956 838.919556,450.841644 
	C843.663879,450.400055 845.341064,452.098511 845.267517,456.990387 
	C845.027405,472.975800 845.208252,488.967560 845.226379,504.956879 
	C845.228821,507.097870 845.226746,509.238861 845.226746,511.763580 
	C847.913330,511.308716 848.927673,509.474152 850.196594,508.108307 
	C856.769836,501.033112 863.333740,493.947632 869.786560,486.763123 
	C871.847900,484.467987 874.143555,483.520660 877.232544,483.610077 
	C883.498779,483.791321 889.773865,483.664215 895.865662,483.664215 
	C896.577026,485.638611 895.412842,486.317871 894.657410,487.108246 
	C886.375061,495.774231 878.238525,504.590729 869.678589,512.974426 
	C866.456238,516.130371 866.372375,518.066040 869.217102,521.536865 
	C879.243042,533.769165 888.906128,546.299072 898.690369,558.729065 
	C899.283752,559.482971 899.733582,560.349915 900.483398,561.531799 
	C896.254395,563.374451 892.116394,562.489807 888.121765,562.905334 
	C878.684021,563.887207 872.658569,559.531982 867.791321,551.897339 
	C864.138000,546.167053 859.548401,541.022888 855.241943,535.726501 
	C853.978271,534.172302 853.187683,530.911865 850.700989,531.949219 
	C847.905334,533.115417 845.265137,535.334961 845.246338,539.055115 
	C845.220154,544.218140 845.219116,549.381287 845.234192,554.544312 
	C845.256836,562.321411 845.266357,562.298157 837.730774,562.419189 
	C835.402527,562.456604 833.078369,562.703247 830.749878,562.776245 
	C824.866394,562.960876 823.985107,562.216187 824.046570,556.359070 
	C824.144409,547.037598 824.421570,537.718018 824.623413,527.909790 
z"/>
<path fill="#000000" opacity="1.000000" stroke="none" 
	d="
M233.862701,589.100525 
	C227.767365,578.361938 221.900513,567.913147 215.912735,557.534180 
	C214.146667,554.473022 213.796021,551.470398 215.951111,548.664490 
	C224.961990,536.932678 227.447388,523.586914 226.052780,509.213776 
	C225.637802,504.936737 227.504120,503.479156 231.873703,503.572784 
	C244.354446,503.840179 256.845917,503.759979 269.330444,503.601044 
	C272.961975,503.554810 274.537628,504.720703 274.292694,508.460907 
	C274.075531,511.776764 274.547760,515.152893 274.172333,518.440369 
	C273.112457,527.721252 275.649139,535.900146 281.322784,543.136902 
	C286.423370,549.642700 286.150665,555.682739 281.763824,562.756409 
	C273.876648,575.474304 266.855347,588.728210 259.421295,601.729065 
	C258.335388,603.628113 257.665161,606.107666 255.214706,606.366516 
	C253.611938,605.627319 253.667419,604.550354 253.666672,603.585083 
	C253.658264,592.763550 253.796509,581.940125 253.625443,571.121521 
	C253.573715,567.849548 255.706406,566.495605 257.661072,564.735168 
	C265.921844,557.295349 266.961121,548.514954 260.507751,541.062378 
	C256.105347,535.978333 249.869827,534.574585 244.354584,537.426086 
	C238.270370,540.571655 234.248398,548.606812 235.827774,554.521790 
	C236.939240,558.684326 239.070297,562.314392 242.716705,564.596863 
	C245.680878,566.452209 246.451050,568.780029 246.407318,572.072754 
	C246.276917,581.892761 246.426865,591.716492 246.457413,601.538757 
	C246.461975,603.004700 246.796356,604.563416 244.815735,606.289978 
	C239.768646,601.595825 237.598373,595.022278 233.862701,589.100525 
z"/>
<path fill="#000000" opacity="1.000000" stroke="none" 
	d="
M421.158325,512.511841 
	C425.685577,496.199615 436.043518,486.200043 452.055481,482.828796 
	C469.274139,479.203522 484.083893,483.908264 495.059296,498.168976 
	C504.500824,510.436584 504.765839,530.763123 496.039185,545.365601 
	C488.159882,558.550171 470.760193,566.502869 455.266846,564.001160 
	C437.879974,561.193604 424.970245,549.553467 421.203552,533.163757 
	C419.659546,526.445435 419.342529,519.676331 421.158325,512.511841 
M453.597260,544.072083 
	C461.754944,547.444397 468.856628,545.696106 475.000031,539.575134 
	C483.218781,531.386536 483.880951,516.490906 476.464783,507.628601 
	C469.034485,498.749298 453.974396,498.078217 446.810059,506.331940 
	C437.721924,516.802002 438.848846,537.316772 453.597260,544.072083 
z"/>
<path fill="#000000" opacity="1.000000" stroke="none" 
	d="
M783.815796,481.967834 
	C805.457581,483.477234 812.241272,499.071320 812.285217,514.341248 
	C812.325989,528.497498 812.176086,542.656555 812.427246,556.808716 
	C812.505981,561.245667 811.002136,562.825806 806.665100,562.447083 
	C803.358704,562.158386 799.995605,562.188721 796.680542,562.413269 
	C792.694580,562.683411 791.677734,560.931335 791.513977,557.143311 
	C790.917175,543.340942 792.596741,529.521484 791.033081,515.733826 
	C789.849121,505.294434 784.851929,500.829773 774.630798,501.285217 
	C766.656250,501.640564 759.474121,509.133026 759.367249,517.570435 
	C759.204712,530.392761 759.283813,543.217896 759.218628,556.041626 
	C759.185974,562.456238 758.821045,562.780823 752.432800,562.873230 
	C738.589355,563.073364 738.601868,563.073425 738.617615,549.356934 
	C738.640564,529.371582 738.749390,509.385223 738.571533,489.401520 
	C738.532776,485.040253 739.901489,483.177368 744.287109,483.703827 
	C745.600220,483.861420 746.948792,483.721191 748.281128,483.722046 
	C757.174011,483.727753 757.174011,483.728149 758.931213,492.731598 
	C765.522278,485.216888 773.772766,481.959778 783.815796,481.967834 
z"/>
<path fill="#000000" opacity="1.000000" stroke="none" 
	d="
M272.091705,433.495728 
	C272.706360,453.588318 273.247894,473.232666 273.857208,492.874878 
	C273.941162,495.580750 272.892700,497.003937 270.160248,497.011230 
	C256.994843,497.046356 243.829407,497.062866 230.663986,497.088318 
	C227.635269,497.094177 226.671310,495.469635 226.770248,492.610382 
	C227.467194,472.467926 227.915237,452.315033 228.821457,432.182526 
	C229.228973,423.128967 237.633438,415.193115 247.243561,413.806244 
	C256.635651,412.450897 266.794586,417.945770 270.135620,426.329956 
	C270.992554,428.480377 271.416931,430.803192 272.091705,433.495728 
z"/>
<path fill="#000000" opacity="1.000000" stroke="none" 
	d="
M165.414581,451.690613 
	C169.386368,452.317322 173.780518,449.868774 176.222107,454.402313 
	C178.633713,458.880188 175.259842,462.100281 173.271027,465.308533 
	C164.757904,479.041534 156.046860,492.654083 147.230957,506.195282 
	C145.503220,508.849060 145.605850,510.714020 147.304962,513.339478 
	C155.994461,526.766174 164.484039,540.322754 172.991302,553.866638 
	C174.136154,555.689270 175.277313,557.607117 175.906525,559.639893 
	C176.982788,563.116760 174.886597,565.845947 171.323502,566.313965 
	C165.058350,567.136841 160.415466,565.653564 156.746262,559.684204 
	C146.978943,543.794006 136.591827,528.283447 126.364449,512.678772 
	C124.973824,510.556976 125.002274,508.975616 126.412064,506.832520 
	C137.673019,489.713867 148.802536,472.508759 159.997208,455.346405 
	C161.178513,453.535370 162.383682,451.641296 165.414581,451.690613 
z"/>
<path fill="#000000" opacity="1.000000" stroke="none" 
	d="
M213.147766,472.080505 
	C205.926620,483.297455 198.991318,494.270142 191.807846,505.077850 
	C189.787796,508.117035 189.575104,510.436005 191.703018,513.576782 
	C197.581635,522.253601 202.983658,531.252686 208.835297,539.948547 
	C211.329651,543.655273 211.548401,546.796509 208.710770,550.336670 
	C206.555099,553.026062 204.766724,556.009827 202.993881,558.601074 
	C200.681046,558.648193 199.800110,557.347534 198.996872,556.113220 
	C190.012802,542.307007 181.110123,528.447571 172.074982,514.674988 
	C169.805725,511.215851 169.711746,508.211273 172.043869,504.653320 
	C182.715439,488.372284 193.184708,471.958740 203.773071,455.622894 
	C205.588257,452.822418 215.135101,451.340637 217.958679,453.281677 
	C220.739716,455.193420 220.841629,459.506805 218.110184,464.161774 
	C216.595367,466.743317 214.934570,469.239227 213.147766,472.080505 
z"/>
</svg>